<svg width="41" height="41" viewBox="0 0 41 41" fill="none" xmlns="http://www.w3.org/2000/svg">
<rect width="41" height="41" rx="3" fill="#D65649"/>
<path d="M11.0915 5.18445H7.77002C6.26849 5.18445 5.51853 5.18445 5.05199 5.66142C4.58545 6.13839 4.58545 6.90512 4.58545 8.44021V16.5796C4.58545 18.1147 4.58545 18.8814 5.05199 19.3584C5.51853 19.8354 6.26849 19.8354 7.77002 19.8354H12.5469C14.0484 19.8354 14.7984 19.8354 15.2649 19.3584C15.7314 18.8814 15.7314 18.1147 15.7314 16.5796V9.9281C15.7314 9.59601 15.7314 9.42915 15.6709 9.2802C15.6104 9.13125 15.4958 9.01241 15.2649 8.77718L12.2173 5.66142C11.9864 5.42537 11.8717 5.30817 11.7261 5.24631C11.5796 5.18445 11.4164 5.18445 11.0915 5.18445Z" stroke="white" stroke-width="2"/>
<path d="M10.9546 5.18445V8.44021C10.9546 9.20776 10.9546 9.59112 11.1879 9.82961C11.4211 10.0681 11.7961 10.0681 12.5469 10.0681H15.7314" stroke="white" stroke-width="2"/>
<path fill-rule="evenodd" clip-rule="evenodd" d="M20.2182 20.0932C20.5364 19.8699 20.9293 19.787 21.3078 19.8629C23.1503 20.2322 25.7233 21.2437 27.1176 22.2704C27.1255 22.2762 27.1334 22.2821 27.1406 22.2881C27.1887 22.3248 27.239 22.3631 27.2921 22.4033C27.9494 22.9025 28.9874 23.6901 29.8055 25.1673C30.6854 26.7559 31.2472 28.9979 31.189 32.3522L28.3085 32.2995C28.361 29.295 27.851 27.6195 27.3 26.6249C26.7893 25.7027 26.1866 25.2422 25.5473 24.7535C25.5071 24.7224 25.4662 24.6912 25.4252 24.6598C24.7357 24.1555 23.4606 23.5698 22.2251 23.1602C21.8997 26.1743 22.1346 29.265 23.0268 31.639C23.5475 33.023 24.263 34.0908 25.1487 34.7919C26.0121 35.4752 27.1197 35.8785 28.5829 35.8096C30.4585 35.7211 31.704 35.2965 32.5524 34.7036C33.3827 34.1237 33.9581 33.2957 34.3467 32.1463C34.7454 30.9682 34.935 29.4862 34.9824 27.6779C35.0183 26.3054 34.9724 24.8002 34.8933 23.1628C33.6298 23.3761 32.77 23.6646 32.2198 23.9046C31.8477 24.0669 31.6149 24.208 31.4921 24.2913C31.4311 24.3325 31.3966 24.3599 31.3851 24.3694C31.3427 24.4092 31.2982 24.4465 31.2508 24.4808L30.9922 24.6701L29.3178 22.268L29.5167 22.1222C29.5347 22.1063 29.5548 22.0893 29.5771 22.0711C29.6583 22.004 29.7653 21.9218 29.9018 21.8294C30.1747 21.6441 30.5633 21.4186 31.0913 21.1881C32.1487 20.7272 33.757 20.2508 36.1195 20.0307C36.5081 19.9945 36.8953 20.1218 37.1912 20.3834C37.4872 20.6451 37.666 21.0186 37.6883 21.4184C37.8111 23.6679 37.9131 25.8154 37.8629 27.7571C37.8119 29.6932 37.6079 31.521 37.0691 33.1131C36.521 34.7339 35.616 36.1365 34.1757 37.1429C32.7535 38.1364 30.9383 38.654 28.7151 38.7587C26.6104 38.8579 24.8218 38.264 23.3874 37.1281C21.9744 36.0099 20.9911 34.4364 20.3388 32.7004C19.043 29.2543 18.9403 24.8863 19.6133 21.0504C19.6816 20.6612 19.8999 20.3164 20.2182 20.0932Z" fill="white"/>
<path d="M29.343 16.0412L26.5884 18.9416C26.4514 19.0858 26.2628 19.1697 26.0639 19.1748C25.8651 19.18 25.6723 19.1059 25.5281 18.9689L22.6277 16.2144C22.4835 16.0774 22.3995 15.8887 22.3944 15.6899C22.3893 15.491 22.4634 15.2983 22.6003 15.1541C22.7373 15.0098 22.926 14.9259 23.1248 14.9208C23.3237 14.9157 23.5164 14.9897 23.6606 15.1267L25.2423 16.6288L25.2023 15.266C25.1759 14.2278 24.8422 13.2208 24.2434 12.3723C23.6446 11.5238 22.8077 10.8719 21.8384 10.4992C20.8691 10.1264 19.8365 10.2779 18.798 10.2782C17.8441 10.2785 18.2122 8.87243 18.467 8.81482C19.7692 8.52041 21.1295 8.61926 22.3757 9.09819C23.622 9.57711 24.6982 10.4148 25.4682 11.5054C26.2383 12.596 26.6677 13.8905 26.7021 15.2251L26.742 16.6016L28.2553 15.0082C28.3923 14.864 28.581 14.7801 28.7798 14.7749C28.9786 14.7698 29.1714 14.8439 29.3156 14.9808C29.4598 15.1178 29.5438 15.3065 29.5489 15.5053C29.554 15.7042 29.4799 15.8969 29.343 16.0412Z" fill="white"/>
</svg>
