<svg width="39" height="39" viewBox="0 0 39 39" fill="none" xmlns="http://www.w3.org/2000/svg">
<g clip-path="url(#clip0_6227_42)">
<rect x="2" y="2" width="35" height="35" rx="3" fill="#D65649"/>
<path d="M10.0915 3.18445H6.77002C5.26849 3.18445 4.51853 3.18445 4.05199 3.66142C3.58545 4.13839 3.58545 4.90512 3.58545 6.44021V14.5796C3.58545 16.1147 3.58545 16.8814 4.05199 17.3584C4.51853 17.8354 5.26849 17.8354 6.77002 17.8354H11.5469C13.0484 17.8354 13.7984 17.8354 14.2649 17.3584C14.7314 16.8814 14.7314 16.1147 14.7314 14.5796V7.9281C14.7314 7.59601 14.7314 7.42915 14.6709 7.2802C14.6104 7.13125 14.4958 7.01241 14.2649 6.77718L11.2173 3.66142C10.9864 3.42537 10.8717 3.30817 10.7261 3.24631C10.5796 3.18445 10.4164 3.18445 10.0915 3.18445Z" stroke="white" stroke-width="2"/>
<path d="M9.95459 3.18445V6.44021C9.95459 7.20776 9.95459 7.59112 10.1879 7.82961C10.4211 8.06809 10.7961 8.06809 11.5469 8.06809H14.7314" stroke="white" stroke-width="2"/>
<path fill-rule="evenodd" clip-rule="evenodd" d="M19.2182 18.0932C19.5364 17.8699 19.9293 17.787 20.3078 17.8629C22.1503 18.2322 24.7233 19.2437 26.1176 20.2704C26.1255 20.2762 26.1334 20.2821 26.1406 20.2881C26.1887 20.3248 26.239 20.3631 26.2921 20.4033C26.9494 20.9025 27.9874 21.6901 28.8055 23.1673C29.6854 24.7559 30.2472 26.9979 30.189 30.3522L27.3085 30.2995C27.361 27.295 26.851 25.6195 26.3 24.6249C25.7893 23.7027 25.1866 23.2422 24.5473 22.7535C24.5071 22.7224 24.4662 22.6912 24.4252 22.6598C23.7357 22.1555 22.4606 21.5698 21.2251 21.1602C20.8997 24.1743 21.1346 27.265 22.0268 29.639C22.5475 31.023 23.263 32.0908 24.1487 32.7919C25.0121 33.4752 26.1197 33.8785 27.5829 33.8096C29.4585 33.7211 30.704 33.2965 31.5524 32.7036C32.3827 32.1237 32.9581 31.2957 33.3467 30.1463C33.7454 28.9682 33.935 27.4862 33.9824 25.6779C34.0183 24.3054 33.9724 22.8002 33.8933 21.1628C32.6298 21.3761 31.77 21.6646 31.2198 21.9046C30.8477 22.0669 30.6149 22.208 30.4921 22.2913C30.4311 22.3325 30.3966 22.3599 30.3851 22.3694C30.3427 22.4092 30.2982 22.4465 30.2508 22.4808L29.9922 22.6701L28.3178 20.268L28.5167 20.1222C28.5347 20.1063 28.5548 20.0893 28.5771 20.0711C28.6583 20.004 28.7653 19.9218 28.9018 19.8294C29.1747 19.6441 29.5633 19.4186 30.0913 19.1881C31.1487 18.7272 32.757 18.2508 35.1195 18.0307C35.5081 17.9945 35.8953 18.1218 36.1912 18.3834C36.4872 18.6451 36.666 19.0186 36.6883 19.4184C36.8111 21.6679 36.9131 23.8154 36.8629 25.7571C36.8119 27.6932 36.6079 29.521 36.0691 31.1131C35.521 32.7339 34.616 34.1365 33.1757 35.1429C31.7535 36.1364 29.9383 36.654 27.7151 36.7587C25.6104 36.8579 23.8218 36.264 22.3874 35.1281C20.9744 34.0099 19.9911 32.4364 19.3388 30.7004C18.043 27.2543 17.9403 22.8863 18.6133 19.0504C18.6816 18.6612 18.8999 18.3164 19.2182 18.0932Z" fill="white"/>
<path d="M28.343 14.0412L25.5884 16.9416C25.4514 17.0858 25.2628 17.1697 25.0639 17.1748C24.8651 17.18 24.6723 17.1059 24.5281 16.9689L21.6277 14.2144C21.4835 14.0774 21.3995 13.8887 21.3944 13.6899C21.3893 13.491 21.4634 13.2983 21.6003 13.1541C21.7373 13.0098 21.926 12.9259 22.1248 12.9208C22.3237 12.9157 22.5164 12.9897 22.6606 13.1267L24.2423 14.6288L24.2023 13.266C24.1759 12.2278 23.8422 11.2208 23.2434 10.3723C22.6446 9.52379 21.8077 8.87193 20.8384 8.49917C19.8691 8.12642 18.8365 8.27786 17.798 8.27817C16.8441 8.27845 17.2122 6.87243 17.467 6.81482C18.7692 6.52041 20.1295 6.61926 21.3757 7.09819C22.622 7.57711 23.6982 8.41484 24.4682 9.50542C25.2383 10.596 25.6677 11.8905 25.7021 13.2251L25.742 14.6016L27.2553 13.0082C27.3923 12.864 27.581 12.7801 27.7798 12.7749C27.9786 12.7698 28.1714 12.8439 28.3156 12.9808C28.4598 13.1178 28.5438 13.3065 28.5489 13.5053C28.554 13.7042 28.4799 13.8969 28.343 14.0412Z" fill="white"/>
</g>
<rect x="1" y="1" width="37" height="37" rx="4" stroke="#D65649" stroke-width="2"/>
<defs>
<clipPath id="clip0_6227_42">
<rect x="2" y="2" width="35" height="35" rx="3" fill="white"/>
</clipPath>
</defs>
</svg>
