<svg width="16" height="17" viewBox="0 0 16 17" fill="none" xmlns="http://www.w3.org/2000/svg">
<path fill-rule="evenodd" clip-rule="evenodd" d="M0.850747 0.223758C1.11784 0.0299499 1.44764 -0.0420646 1.76538 0.0238493C3.31189 0.344442 5.47157 1.22263 6.64185 2.11397C6.64849 2.11906 6.65513 2.12416 6.66116 2.12938C6.70155 2.16124 6.74375 2.19452 6.78837 2.2294C7.34005 2.66277 8.21127 3.34654 8.898 4.62903C9.63659 6.00825 10.1081 7.95472 10.0592 10.867L7.6415 10.8212C7.68551 8.21267 7.25744 6.75806 6.795 5.89456C6.36632 5.09387 5.86046 4.6941 5.32386 4.26983C5.29009 4.24281 5.25573 4.21572 5.22137 4.18844C4.64256 3.75063 3.57236 3.24214 2.53532 2.88654C2.2622 5.50331 2.45935 8.18668 3.20819 10.2477C3.64531 11.4493 4.24583 12.3763 4.98924 12.985C5.71395 13.5783 6.64367 13.9284 7.87183 13.8686C9.44607 13.7918 10.4915 13.4232 11.2036 12.9084C11.9006 12.4049 12.3835 11.686 12.7097 10.6881C13.0443 9.66535 13.2035 8.37873 13.2433 6.80875C13.2734 5.61719 13.2349 4.31039 13.1685 2.88874C12.108 3.07395 11.3863 3.32442 10.9244 3.53279C10.6121 3.67369 10.4168 3.79622 10.3137 3.86851C10.2624 3.90431 10.2335 3.9281 10.2238 3.93629C10.1883 3.97092 10.1509 4.00323 10.1111 4.03309L9.89404 4.19741L8.48861 2.11191L8.65562 1.98531C8.6707 1.97151 8.68759 1.95675 8.70628 1.94095C8.77441 1.88271 8.86424 1.81139 8.9788 1.7311C9.20791 1.57025 9.5341 1.37445 9.97725 1.1744C10.8648 0.77417 12.2147 0.360577 14.1977 0.169542C14.5239 0.138072 14.8489 0.248593 15.0973 0.475748C15.3457 0.702903 15.4958 1.02721 15.5145 1.37429C15.6176 3.32726 15.7032 5.1917 15.661 6.8775C15.6182 8.5584 15.447 10.1453 14.9948 11.5275C14.5348 12.9347 13.7751 14.1524 12.5662 15.0262C11.3724 15.8887 9.84881 16.3381 7.98276 16.429C6.21619 16.5152 4.71491 15.9995 3.51086 15.0133C2.32491 14.0425 1.49949 12.6765 0.952038 11.1692C-0.13564 8.17733 -0.221846 4.38513 0.343095 1.05482C0.400373 0.716942 0.583651 0.41756 0.850747 0.223758Z" fill="#D65649"/>
</svg>
