<svg width="14" height="12" viewBox="0 0 14 12" fill="none" xmlns="http://www.w3.org/2000/svg">
<path d="M14 1.49992H6.372C6.21673 1.06123 5.92931 0.681447 5.54929 0.412838C5.16928 0.144229 4.71536 0 4.25 0C3.78464 0 3.33072 0.144229 2.95071 0.412838C2.57069 0.681447 2.28327 1.06123 2.128 1.49992H0V2.99992H2.128C2.28281 3.43907 2.57006 3.81937 2.95013 4.08838C3.3302 4.35738 3.78436 4.50185 4.25 4.50185C4.71564 4.50185 5.1698 4.35738 5.54987 4.08838C5.92994 3.81937 6.21719 3.43907 6.372 2.99992H14V1.49992ZM14 8.99992H11.872C11.7167 8.56123 11.4293 8.18145 11.0493 7.91284C10.6693 7.64423 10.2154 7.5 9.75 7.5C9.28464 7.5 8.83072 7.64423 8.45071 7.91284C8.07069 8.18145 7.78327 8.56123 7.628 8.99992H0V10.4999H7.628C7.78327 10.9386 8.07069 11.3184 8.45071 11.587C8.83072 11.8556 9.28464 11.9998 9.75 11.9998C10.2154 11.9998 10.6693 11.8556 11.0493 11.587C11.4293 11.3184 11.7167 10.9386 11.872 10.4999H14V8.99992Z" fill="black"/>
</svg>
