<svg width="16" height="16" viewBox="0 0 16 16" fill="none" xmlns="http://www.w3.org/2000/svg">
<path d="M8.00009 12.4001L3.60009 8.00009L8.00009 3.60009L9.46509 5.06509L6.53509 8.00009L8.00009 9.46509L12.4001 5.06509L8.56509 1.23509C8.41512 1.08548 8.21193 1.00146 8.00009 1.00146C7.78826 1.00146 7.58507 1.08548 7.43509 1.23509L1.23509 7.43509C1.08548 7.58507 1.00146 7.78826 1.00146 8.00009C1.00146 8.21193 1.08548 8.41512 1.23509 8.56509L7.43509 14.7651C7.58507 14.9147 7.78826 14.9987 8.00009 14.9987C8.21193 14.9987 8.41512 14.9147 8.56509 14.7651L14.7651 8.56509C14.9147 8.41512 14.9987 8.21193 14.9987 8.00009C14.9987 7.78826 14.9147 7.58507 14.7651 7.43509L13.8651 6.53509L8.00009 12.4001Z" fill="#448C6F"/>
</svg>
