<svg width="20" height="20" viewBox="0 0 20 20" fill="none" xmlns="http://www.w3.org/2000/svg">
<path d="M9.14347 2.96252C9.80847 2.96252 10.197 3.43052 10.197 4.76102C10.197 6.09152 9.21647 8.76252 8.45947 10.482C7.60947 12.4135 5.41797 16.591 4.00497 16.537C3.36147 16.5125 3.02247 16.167 3.00097 15.632C2.97647 15.029 3.41847 14.6545 4.27297 14.077C5.67897 13.127 7.75797 12.447 9.87797 11.889C11.9855 11.334 12.5535 11.1565 14.3375 11.1565C16.1215 11.1565 16.5 11.757 16.5 12.358C16.5 12.959 15.9915 13.2915 15.345 13.2915C14.636 13.2915 13.3295 13.286 10.7425 10.1865C8.43697 7.42302 8.22147 5.78702 8.22147 4.60402C8.22147 3.42102 8.49647 2.96252 9.14347 2.96252Z" stroke="#1E40AF" stroke-linecap="round" stroke-linejoin="round"/>
<path d="M17 0.5H2.5C1.96957 0.5 1.46086 0.710714 1.08579 1.08579C0.710714 1.46086 0.5 1.96957 0.5 2.5V17C0.5 17.5304 0.710714 18.0391 1.08579 18.4142C1.46086 18.7893 1.96957 19 2.5 19H17C17.5304 19 18.0391 18.7893 18.4142 18.4142C18.7893 18.0391 19 17.5304 19 17V2.5C19 1.96957 18.7893 1.46086 18.4142 1.08579C18.0391 0.710714 17.5304 0.5 17 0.5Z" stroke="#1E40AF" stroke-linecap="round" stroke-linejoin="round"/>
</svg>
