<svg width="17" height="18" viewBox="0 0 17 18" fill="none" xmlns="http://www.w3.org/2000/svg">
<path d="M7.79179 0.652832C8.56454 0.652832 9.01599 1.19667 9.01599 2.74276C9.01599 4.28886 7.87661 7.39266 6.99695 9.39079C6.00922 11.6353 3.46261 16.4897 1.82064 16.4269C1.07287 16.3985 0.678938 15.997 0.653955 15.3753C0.625485 14.6746 1.13911 14.2394 2.13207 13.5683C3.7659 12.4644 6.18178 11.6742 8.6453 11.0258C11.0943 10.3809 11.7543 10.1746 13.8274 10.1746C15.9005 10.1746 16.3403 10.8724 16.3403 11.5708C16.3403 12.2692 15.7494 12.6555 14.9982 12.6555C14.1743 12.6555 12.6561 12.6492 9.64989 9.04741C6.9708 5.83611 6.72038 3.93501 6.72038 2.56032C6.72038 1.18563 7.03995 0.652832 7.79179 0.652832Z" stroke="#FF2116" stroke-width="1.30563" stroke-linecap="round" stroke-linejoin="round"/>
</svg>
