<svg width="41" height="17" viewBox="0 0 41 17" fill="none" xmlns="http://www.w3.org/2000/svg">
<g clip-path="url(#clip0_6212_11)">
<path fill-rule="evenodd" clip-rule="evenodd" d="M26.0636 0.785465C26.3307 0.591656 26.6605 0.519642 26.9783 0.585556C28.5248 0.906149 30.6845 1.78434 31.8547 2.67568C31.8614 2.68077 31.868 2.68586 31.874 2.69109C31.9144 2.72295 31.9566 2.75622 32.0013 2.79111C32.5529 3.22447 33.4242 3.90825 34.1109 5.19074C34.8495 6.56996 35.321 8.51642 35.2721 11.4287L32.8544 11.3829C32.8984 8.77438 32.4703 7.31977 32.0079 6.45627C31.5792 5.65557 31.0733 5.25581 30.5367 4.83153C30.503 4.80451 30.4686 4.77743 30.4343 4.75015C29.8555 4.31234 28.7852 3.80384 27.7482 3.44825C27.4751 6.06501 27.6722 8.74839 28.4211 10.8095C28.8582 12.011 29.4587 12.938 30.2021 13.5467C30.9268 14.14 31.8566 14.4901 33.0847 14.4303C34.659 14.3535 35.7044 13.9849 36.4165 13.4701C37.1135 12.9666 37.5964 12.2477 37.9226 11.2498C38.2572 10.2271 38.4164 8.94044 38.4562 7.37046C38.4863 6.1789 38.4477 4.8721 38.3814 3.45044C37.3209 3.63566 36.5992 3.88613 36.1373 4.09449C35.825 4.2354 35.6297 4.35793 35.5266 4.43022C35.4753 4.46601 35.4464 4.48981 35.4367 4.498C35.4012 4.53263 35.3638 4.56494 35.324 4.5948L35.1069 4.75911L33.7015 2.67361L33.8685 2.54702C33.8836 2.53322 33.9005 2.51845 33.9192 2.50265C33.9873 2.44442 34.0771 2.37309 34.1917 2.29281C34.4208 2.13196 34.747 1.93616 35.1901 1.73611C36.0776 1.33588 37.4276 0.922284 39.4106 0.731249C39.7368 0.699778 40.0618 0.810299 40.3102 1.03745C40.5586 1.26461 40.7087 1.58892 40.7274 1.936C40.8305 3.88897 40.9161 5.7534 40.8739 7.4392C40.8311 9.1201 40.6599 10.707 40.2077 12.0892C39.7476 13.4964 38.988 14.7141 37.7791 15.5879C36.5853 16.4504 35.0617 16.8998 33.1957 16.9907C31.4291 17.0769 29.9278 16.5612 28.7238 15.575C27.5378 14.6042 26.7124 13.2382 26.1649 11.7309C25.0773 8.73904 24.991 4.94684 25.556 1.61653C25.6133 1.27865 25.7965 0.979266 26.0636 0.785465Z" fill="#D65649"/>
<path d="M8.01291 1.39246H4.69141C3.18988 1.39246 2.43992 1.39246 1.97338 1.86943C1.50684 2.3464 1.50684 3.11313 1.50684 4.64822V12.7876C1.50684 14.3227 1.50684 15.0895 1.97338 15.5664C2.43992 16.0434 3.18988 16.0434 4.69141 16.0434H9.46826C10.9698 16.0434 11.7198 16.0434 12.1863 15.5664C12.6528 15.0895 12.6528 14.3227 12.6528 12.7876V6.1361C12.6528 5.80402 12.6528 5.63716 12.5923 5.48821C12.5318 5.33926 12.4172 5.22042 12.1863 4.98519L9.13866 1.86943C8.90778 1.63338 8.79313 1.51618 8.64744 1.45432C8.50095 1.39246 8.33774 1.39246 8.01291 1.39246Z" stroke="#D65649" stroke-width="2"/>
<path d="M7.87598 1.39246V4.64822C7.87598 5.41577 7.87598 5.79913 8.10925 6.03762C8.34252 6.2761 8.7175 6.2761 9.46826 6.2761H12.6528" stroke="#D65649" stroke-width="2"/>
<line x1="21.9738" y1="1.28771" x2="16.6525" y2="15.4588" stroke="#D65649" stroke-width="2" stroke-linecap="round"/>
</g>
<defs>
<clipPath id="clip0_6212_11">
<rect width="41" height="17" fill="white"/>
</clipPath>
</defs>
</svg>
