<svg width="20" height="45" viewBox="0 0 20 45" fill="none" xmlns="http://www.w3.org/2000/svg">
<g clip-path="url(#clip0_6213_50)">
<rect width="20" height="45" fill="white"/>
<path fill-rule="evenodd" clip-rule="evenodd" d="M1.56715 25.1203C1.8867 24.8884 2.28127 24.8023 2.66142 24.8811C4.51165 25.2647 7.0955 26.3154 8.49562 27.3817C8.50355 27.3878 8.5115 27.3939 8.51871 27.4002C8.56704 27.4383 8.61753 27.4781 8.67091 27.5199C9.33094 28.0383 10.3733 28.8564 11.1949 30.3908C12.0785 32.0409 12.6426 34.3696 12.5842 37.8538L9.69159 37.799C9.74425 34.6782 9.23211 32.9379 8.67884 31.9048C8.16597 30.9469 7.56076 30.4686 6.91877 29.961C6.87837 29.9287 6.83727 29.8963 6.79615 29.8636C6.10367 29.3398 4.82328 28.7315 3.58257 28.3061C3.25581 31.4367 3.49168 34.6471 4.38759 37.113C4.91056 38.5505 5.62902 39.6596 6.51843 40.3879C7.38548 41.0977 8.49779 41.5166 9.96716 41.445C11.8506 41.3531 13.1014 40.9121 13.9533 40.2962C14.7871 39.6938 15.3649 38.8338 15.7552 37.6399C16.1555 36.4162 16.346 34.8769 16.3936 32.9986C16.4296 31.573 16.3835 30.0095 16.3041 28.3087C15.0353 28.5303 14.1718 28.8299 13.6193 29.0792C13.2456 29.2478 13.0119 29.3944 12.8886 29.4809C12.8273 29.5237 12.7926 29.5522 12.7811 29.562C12.7385 29.6034 12.6938 29.6421 12.6462 29.6778L12.3865 29.8744L10.7051 27.3793L10.9049 27.2278C10.9229 27.2113 10.9431 27.1936 10.9655 27.1747C11.047 27.1051 11.1545 27.0197 11.2915 26.9237C11.5656 26.7312 11.9559 26.497 12.4861 26.2577C13.5479 25.7788 15.163 25.284 17.5355 25.0554C17.9257 25.0178 18.3145 25.15 18.6117 25.4218C18.9089 25.6936 19.0885 26.0816 19.1109 26.4968C19.2342 28.8333 19.3366 31.0639 19.2861 33.0808C19.2349 35.0919 19.0301 36.9904 18.4891 38.6441C17.9387 40.3276 17.0298 41.7845 15.5835 42.8299C14.1552 43.8618 12.3324 44.3994 10.0999 44.5082C7.98635 44.6113 6.19022 43.9944 4.74971 42.8145C3.33084 41.6531 2.34331 40.0187 1.68833 38.2154C0.387037 34.6359 0.2839 30.099 0.959795 26.1146C1.02832 25.7103 1.2476 25.3522 1.56715 25.1203Z" fill="#D65649"/>
<path d="M10.7328 1.50262H6.04444C3.92499 1.50262 2.86639 1.50262 2.20785 2.17588C1.54932 2.84914 1.54932 3.9314 1.54932 6.09824V17.5873C1.54932 19.7541 1.54932 20.8364 2.20785 21.5096C2.86639 22.1829 3.92499 22.1829 6.04444 22.1829H12.7871C14.9066 22.1829 15.9652 22.1829 16.6237 21.5096C17.2822 20.8364 17.2822 19.7541 17.2822 17.5873V8.19843C17.2822 7.72968 17.2822 7.49415 17.1968 7.2839C17.1114 7.07365 16.9496 6.90591 16.6237 6.57388L12.3219 2.17588C11.996 1.8427 11.8341 1.67726 11.6285 1.58994C11.4217 1.50262 11.1913 1.50262 10.7328 1.50262Z" stroke="#D65649" stroke-width="2"/>
<path d="M10.5396 1.50262V6.09824C10.5396 7.18165 10.5396 7.72278 10.8688 8.05941C11.1981 8.39604 11.7274 8.39604 12.7871 8.39604H17.2822" stroke="#D65649" stroke-width="2"/>
</g>
<defs>
<clipPath id="clip0_6213_50">
<rect width="20" height="45" fill="white"/>
</clipPath>
</defs>
</svg>
