<svg width="20" height="42" viewBox="0 0 20 42" fill="none" xmlns="http://www.w3.org/2000/svg">
<g clip-path="url(#clip0_6213_50)">
<rect width="20" height="42" fill="white"/>
<path fill-rule="evenodd" clip-rule="evenodd" d="M1.56715 22.1203C1.8867 21.8884 2.28127 21.8023 2.66142 21.8811C4.51165 22.2647 7.0955 23.3154 8.49562 24.3817C8.50355 24.3878 8.5115 24.3939 8.51871 24.4002C8.56704 24.4383 8.61753 24.4781 8.67091 24.5199C9.33094 25.0383 10.3733 25.8564 11.1949 27.3908C12.0785 29.0409 12.6426 31.3696 12.5842 34.8538L9.69159 34.799C9.74425 31.6782 9.23211 29.9379 8.67884 28.9048C8.16597 27.9469 7.56076 27.4686 6.91877 26.961C6.87837 26.9287 6.83727 26.8963 6.79615 26.8636C6.10367 26.3398 4.82328 25.7315 3.58257 25.3061C3.25581 28.4367 3.49168 31.6471 4.38759 34.113C4.91056 35.5505 5.62902 36.6596 6.51843 37.3879C7.38548 38.0977 8.49779 38.5166 9.96716 38.445C11.8506 38.3531 13.1014 37.9121 13.9533 37.2962C14.7871 36.6938 15.3649 35.8338 15.7552 34.6399C16.1555 33.4162 16.346 31.8769 16.3936 29.9986C16.4296 28.573 16.3835 27.0095 16.3041 25.3087C15.0353 25.5303 14.1718 25.8299 13.6193 26.0792C13.2456 26.2478 13.0119 26.3944 12.8886 26.4809C12.8273 26.5237 12.7926 26.5522 12.7811 26.562C12.7385 26.6034 12.6938 26.6421 12.6462 26.6778L12.3865 26.8744L10.7051 24.3793L10.9049 24.2278C10.9229 24.2113 10.9431 24.1936 10.9655 24.1747C11.047 24.1051 11.1545 24.0197 11.2915 23.9237C11.5656 23.7312 11.9559 23.497 12.4861 23.2577C13.5479 22.7788 15.163 22.284 17.5355 22.0554C17.9257 22.0178 18.3145 22.15 18.6117 22.4218C18.9089 22.6936 19.0885 23.0816 19.1109 23.4968C19.2342 25.8333 19.3366 28.0639 19.2861 30.0808C19.2349 32.0919 19.0301 33.9904 18.4891 35.6441C17.9387 37.3276 17.0298 38.7845 15.5835 39.8299C14.1552 40.8618 12.3324 41.3994 10.0999 41.5082C7.98635 41.6113 6.19022 40.9944 4.74971 39.8145C3.33084 38.6531 2.34331 37.0187 1.68833 35.2154C0.387037 31.6359 0.2839 27.099 0.959795 23.1146C1.02832 22.7103 1.2476 22.3522 1.56715 22.1203Z" fill="#D65649"/>
<path d="M9.44278 3.21252C10.1078 3.21252 10.4963 3.68052 10.4963 5.01102C10.4963 6.34152 9.51578 9.01252 8.75878 10.732C7.90878 12.6635 5.71728 16.841 4.30428 16.787C3.66078 16.7625 3.32178 16.417 3.30028 15.882C3.27578 15.279 3.71778 14.9045 4.57228 14.327C5.97828 13.377 8.05728 12.697 10.1773 12.139C12.2848 11.584 12.8528 11.4065 14.6368 11.4065C16.4208 11.4065 16.7993 12.007 16.7993 12.608C16.7993 13.209 16.2908 13.5415 15.6443 13.5415C14.9353 13.5415 13.6288 13.536 11.0418 10.4365C8.73628 7.67302 8.52078 6.03702 8.52078 4.85402C8.52078 3.67102 8.79578 3.21252 9.44278 3.21252Z" stroke="#1E40AF" stroke-linecap="round" stroke-linejoin="round"/>
<path d="M17.2993 0.75H2.79932C2.26888 0.75 1.76018 0.960714 1.3851 1.33579C1.01003 1.71086 0.799316 2.21957 0.799316 2.75V17.25C0.799316 17.7804 1.01003 18.2891 1.3851 18.6642C1.76018 19.0393 2.26888 19.25 2.79932 19.25H17.2993C17.8297 19.25 18.3385 19.0393 18.7135 18.6642C19.0886 18.2891 19.2993 17.7804 19.2993 17.25V2.75C19.2993 2.21957 19.0886 1.71086 18.7135 1.33579C18.3385 0.960714 17.8297 0.75 17.2993 0.75Z" stroke="#1E40AF" stroke-linecap="round" stroke-linejoin="round"/>
</g>
<defs>
<clipPath id="clip0_6213_50">
<rect width="20" height="42" fill="white"/>
</clipPath>
</defs>
</svg>
