<svg width="73" height="40" viewBox="0 0 73 40" fill="none" xmlns="http://www.w3.org/2000/svg">
<rect x="1" y="1" width="71" height="38" rx="7" fill="white"/>
<rect x="1" y="1" width="71" height="38" rx="7" stroke="#C8C8C8" stroke-width="2" stroke-linecap="round"/>
<path fill-rule="evenodd" clip-rule="evenodd" d="M45.9329 11.0177C46.2524 10.7858 46.647 10.6997 47.0271 10.7785C48.8774 11.1621 51.4612 12.2128 52.8613 13.2791C52.8693 13.2852 52.8772 13.2913 52.8844 13.2976C52.9328 13.3357 52.9833 13.3755 53.0366 13.4173C53.6967 13.9357 54.739 14.7538 55.5606 16.2882C56.4442 17.9383 57.0083 20.267 56.9499 23.7512L54.0573 23.6964C54.11 20.5756 53.5978 18.8353 53.0446 17.8022C52.5317 16.8443 51.9265 16.366 51.2845 15.8584C51.2441 15.8261 51.203 15.7937 51.1619 15.761C50.4694 15.2372 49.189 14.6289 47.9483 14.2035C47.6215 17.3341 47.8574 20.5445 48.7533 23.0104C49.2763 24.4479 49.9947 25.557 50.8842 26.2853C51.7512 26.9951 52.8635 27.414 54.3329 27.3424C56.2163 27.2505 57.4671 26.8095 58.319 26.1936C59.1529 25.5912 59.7307 24.7312 60.1209 23.5373C60.5212 22.3136 60.7117 20.7743 60.7593 18.896C60.7954 17.4704 60.7492 15.9069 60.6699 14.2061C59.401 14.4277 58.5376 14.7273 57.985 14.9766C57.6114 15.1452 57.3776 15.2918 57.2543 15.3783C57.193 15.4211 57.1584 15.4496 57.1468 15.4594C57.1043 15.5008 57.0595 15.5395 57.0119 15.5752L56.7523 15.7718L55.0708 13.2767L55.2706 13.1252C55.2886 13.1087 55.3089 13.091 55.3312 13.0721C55.4127 13.0025 55.5202 12.9171 55.6573 12.8211C55.9314 12.6286 56.3216 12.3944 56.8518 12.1551C57.9136 11.6762 59.5287 11.1814 61.9012 10.9528C62.2914 10.9152 62.6802 11.0474 62.9774 11.3192C63.2746 11.591 63.4542 11.979 63.4766 12.3942C63.5999 14.7307 63.7024 16.9613 63.6519 18.9782C63.6007 20.9893 63.3958 22.8878 62.8548 24.5415C62.3044 26.225 61.3955 27.6819 59.9492 28.7273C58.521 29.7592 56.6981 30.2968 54.4656 30.4056C52.3521 30.5087 50.5559 29.8918 49.1154 28.7119C47.6966 27.5505 46.709 25.9161 46.0541 24.1128C44.7528 20.5333 44.6496 15.9964 45.3255 12.012C45.394 11.6077 45.6133 11.2496 45.9329 11.0177Z" fill="#D65649"/>
<path d="M16.4428 13.2125C17.1078 13.2125 17.4963 13.6805 17.4963 15.011C17.4963 16.3415 16.5158 19.0125 15.7588 20.732C14.9088 22.6635 12.7173 26.841 11.3043 26.787C10.6608 26.7625 10.3218 26.417 10.3003 25.882C10.2758 25.279 10.7178 24.9045 11.5723 24.327C12.9783 23.377 15.0573 22.697 17.1773 22.139C19.2848 21.584 19.8528 21.4065 21.6368 21.4065C23.4208 21.4065 23.7993 22.007 23.7993 22.608C23.7993 23.209 23.2908 23.5415 22.6443 23.5415C21.9353 23.5415 20.6288 23.536 18.0418 20.4365C15.7363 17.673 15.5208 16.037 15.5208 14.854C15.5208 13.671 15.7958 13.2125 16.4428 13.2125Z" stroke="#1E40AF" stroke-linecap="round" stroke-linejoin="round"/>
<path d="M24.2993 10.75H9.79932C9.26888 10.75 8.76018 10.9607 8.3851 11.3358C8.01003 11.7109 7.79932 12.2196 7.79932 12.75V27.25C7.79932 27.7804 8.01003 28.2891 8.3851 28.6642C8.76018 29.0393 9.26888 29.25 9.79932 29.25H24.2993C24.8297 29.25 25.3385 29.0393 25.7135 28.6642C26.0886 28.2891 26.2993 27.7804 26.2993 27.25V12.75C26.2993 12.2196 26.0886 11.7109 25.7135 11.3358C25.3385 10.9607 24.8297 10.75 24.2993 10.75Z" stroke="#1E40AF" stroke-linecap="round" stroke-linejoin="round"/>
<path d="M42.7723 21.3206C43.1795 20.9474 43.207 20.3149 42.8339 19.9077L36.7529 13.2728C36.3797 12.8657 35.7472 12.8381 35.34 13.2113C34.9329 13.5845 34.9053 14.217 35.2785 14.6242L40.6838 20.5218L34.7862 25.9272C34.379 26.3003 34.3514 26.9329 34.7246 27.34C35.0978 27.7472 35.7303 27.7747 36.1375 27.4016L42.7723 21.3206ZM28.7046 20.0001L28.6611 20.9991L42.0532 21.5824L42.0967 20.5834L42.1402 19.5843L28.7481 19.001L28.7046 20.0001Z" fill="#C8C8C8"/>
</svg>
