<svg width="32" height="32" viewBox="0 0 32 32" fill="none" xmlns="http://www.w3.org/2000/svg">
<g clip-path="url(#clip0_6212_41)">
<rect width="32" height="32" fill="white"/>
<path d="M9.44278 3.21252C10.1078 3.21252 10.4963 3.68052 10.4963 5.01102C10.4963 6.34152 9.51578 9.01252 8.75878 10.732C7.90878 12.6635 5.71728 16.841 4.30428 16.787C3.66078 16.7625 3.32178 16.417 3.30028 15.882C3.27578 15.279 3.71778 14.9045 4.57228 14.327C5.97828 13.377 8.05728 12.697 10.1773 12.139C12.2848 11.584 12.8528 11.4065 14.6368 11.4065C16.4208 11.4065 16.7993 12.007 16.7993 12.608C16.7993 13.209 16.2908 13.5415 15.6443 13.5415C14.9353 13.5415 13.6288 13.536 11.0418 10.4365C8.73628 7.67302 8.52078 6.03702 8.52078 4.85402C8.52078 3.67102 8.79578 3.21252 9.44278 3.21252Z" stroke="#1E40AF" stroke-linecap="round" stroke-linejoin="round"/>
<path d="M17.2993 0.75H2.79932C2.26888 0.75 1.76018 0.960714 1.3851 1.33579C1.01003 1.71086 0.799316 2.21957 0.799316 2.75V17.25C0.799316 17.7804 1.01003 18.2891 1.3851 18.6642C1.76018 19.0393 2.26888 19.25 2.79932 19.25H17.2993C17.8297 19.25 18.3385 19.0393 18.7135 18.6642C19.0886 18.2891 19.2993 17.7804 19.2993 17.25V2.75C19.2993 2.21957 19.0886 1.71086 18.7135 1.33579C18.3385 0.960714 17.8297 0.75 17.2993 0.75Z" stroke="#1E40AF" stroke-linecap="round" stroke-linejoin="round"/>
<g clip-path="url(#clip1_6212_41)">
<rect x="13" y="12" width="20" height="21" rx="3" fill="white"/>
<path fill-rule="evenodd" clip-rule="evenodd" d="M14.4358 12.6504C14.7554 12.4185 15.1499 12.3324 15.5301 12.4112C17.3803 12.7948 19.9642 13.8454 21.3643 14.9118C21.3722 14.9179 21.3802 14.924 21.3874 14.9303C21.4357 14.9684 21.4862 15.0082 21.5396 15.0499C22.1996 15.5684 23.2419 16.3865 24.0635 17.9209C24.9472 19.571 25.5113 21.8997 25.4528 25.3839L22.5602 25.3291C22.6129 22.2083 22.1008 20.468 21.5475 19.4349C21.0346 18.477 20.4294 17.9987 19.7874 17.4911C19.747 17.4588 19.7059 17.4264 19.6648 17.3937C18.9723 16.8699 17.6919 16.2616 16.4512 15.8361C16.1245 18.9668 16.3603 22.1772 17.2562 24.6431C17.7792 26.0806 18.4977 27.1897 19.3871 27.918C20.2541 28.6278 21.3664 29.0467 22.8358 28.9751C24.7192 28.8832 25.97 28.4422 26.8219 27.8263C27.6558 27.2239 28.2336 26.3638 28.6238 25.17C29.0242 23.9463 29.2146 22.407 29.2622 20.5287C29.2983 19.1031 29.2521 17.5396 29.1728 15.8388C27.9039 16.0604 27.0405 16.36 26.4879 16.6093C26.1143 16.7779 25.8806 16.9245 25.7572 17.011C25.6959 17.0538 25.6613 17.0823 25.6498 17.0921C25.6072 17.1335 25.5625 17.1722 25.5149 17.2079L25.2552 17.4045L23.5737 14.9094L23.7735 14.7579C23.7916 14.7414 23.8118 14.7237 23.8341 14.7048C23.9157 14.6352 24.0231 14.5498 24.1602 14.4538C24.4343 14.2613 24.8245 14.0271 25.3547 13.7877C26.4165 13.3089 28.0316 12.8141 30.4041 12.5855C30.7944 12.5479 31.1831 12.6801 31.4803 12.9519C31.7775 13.2236 31.9571 13.6116 31.9795 14.0269C32.1029 16.3634 32.2053 18.594 32.1548 20.6109C32.1036 22.6219 31.8987 24.5205 31.3577 26.1742C30.8073 27.8577 29.8984 29.3146 28.4521 30.36C27.0239 31.3919 25.2011 31.9295 22.9685 32.0383C20.855 32.1414 19.0589 31.5245 17.6184 30.3446C16.1995 29.1831 15.212 27.5488 14.557 25.7455C13.2557 22.166 13.1526 17.6291 13.8284 13.6447C13.897 13.2404 14.1162 12.8823 14.4358 12.6504Z" fill="#D65649"/>
</g>
<rect x="12.5" y="11.5" width="21" height="22" rx="3.5" stroke="white"/>
</g>
<defs>
<clipPath id="clip0_6212_41">
<rect width="32" height="32" fill="white"/>
</clipPath>
<clipPath id="clip1_6212_41">
<rect x="13" y="12" width="20" height="21" rx="3" fill="white"/>
</clipPath>
</defs>
</svg>
