<svg width="15" height="11" viewBox="0 0 15 11" fill="none" xmlns="http://www.w3.org/2000/svg">
<path d="M14.4893 7.39227L11.7347 10.2927C11.5977 10.4369 11.4091 10.5208 11.2102 10.526C11.0114 10.5311 10.8186 10.457 10.6744 10.32L7.77398 7.56549C7.62975 7.42851 7.54584 7.23984 7.54071 7.041C7.53558 6.84215 7.60965 6.64941 7.74663 6.50518C7.88361 6.36095 8.07227 6.27704 8.27112 6.27191C8.46997 6.26678 8.66271 6.34085 8.80694 6.47783L10.3886 7.97992L10.3486 6.61711C10.3222 5.57894 9.9885 4.57192 9.38972 3.72341C8.79094 2.87491 7.95397 2.22305 6.98467 1.8503C6.01537 1.47754 4.95729 1.40063 3.94427 1.62929C2.93126 1.85796 2.00881 2.38192 1.29362 3.13491C1.15664 3.27915 0.967979 3.36306 0.769132 3.36819C0.570286 3.37331 0.377546 3.29924 0.233314 3.16226C0.0890819 3.02528 0.00517193 2.83662 4.29744e-05 2.63777C-0.00508598 2.43893 0.0689862 2.24619 0.205965 2.10196C1.1253 1.13385 2.31108 0.46011 3.61333 0.16594C4.91559 -0.12823 6.27583 -0.0296159 7.52204 0.44931C8.76825 0.928236 9.84445 1.76596 10.6145 2.85655C11.3846 3.94713 11.814 5.24159 11.8484 6.57621L11.8883 7.95273L13.4016 6.35932C13.5386 6.21508 13.7272 6.13117 13.9261 6.12604C14.1249 6.12092 14.3177 6.19499 14.4619 6.33197C14.6061 6.46895 14.6901 6.65761 14.6952 6.85646C14.7003 7.0553 14.6262 7.24804 14.4893 7.39227Z" fill="#D65649"/>
</svg>
